<mxfile host="Electron" modified="2023-05-20T18:37:43.935Z" agent="Mozilla/5.0 (Windows NT 10.0; Win64; x64) AppleWebKit/537.36 (KHTML, like Gecko) draw.io/21.2.8 Chrome/112.0.5615.165 Electron/24.2.0 Safari/537.36" etag="1RUXlZ5kf0_YWHTt9dt-" version="21.2.8" type="device">
  <diagram name="Page-1" id="8dfVtd8XV4DSv9THPnbw">
    <mxGraphModel dx="1400" dy="828" grid="1" gridSize="10" guides="1" tooltips="1" connect="1" arrows="1" fold="1" page="1" pageScale="1" pageWidth="1169" pageHeight="827" math="0" shadow="0">
      <root>
        <mxCell id="0" />
        <mxCell id="1" parent="0" />
        <UserObject label="&lt;div style=&quot;font-size: 1px&quot;&gt;&lt;font style=&quot;font-size: 11.29px; direction: ltr; letter-spacing: 0px; line-height: 120%; opacity: 1;&quot;&gt;Start&lt;/font&gt;&lt;/div&gt;" Function="EN_DIO_Error_T DIO_init(uint8_t pinNumber, EN_DIO_PORT_T portNumber, EN_DIO_DIRECTION_T direction);" tags="Flowchart" id="ukDgvpKOKT4WT6pL_J3a-34">
          <mxCell style="verticalAlign=middle;align=center;overflow=width;vsdxID=30;fillColor=#dae8fc;shape=stencil(tVLREoIgEPwaHnEQxsl3s/9gEpSJwDko7e+DsEkze2l627vdu5uFRaxyHe8FosR5sCcxqMZ3iO0Rpcp0ApQPCLEasUpaEC3Yi2lS3fOojOhsr3HDmObyMtsVcYqS29Qh5FEfklwrM5OXeUa/yjkcAwfr7TDpiyTfXvjkMR+Vw2A998qaBac5tAKHU1hq3i4oNwjRr9ofvayt/+Rk+yX/4iWA159KpXWKxJx/z0Bopfyw+g4=);strokeColor=#6c8ebf;spacingTop=-1;spacingBottom=-1;spacingLeft=-1;spacingRight=-1;points=[[0.5,1,0],[0.5,0,0],[0,0.5,0],[1,0.5,0]];labelBackgroundColor=none;rounded=1;html=1;whiteSpace=wrap;fontFamily=Calibri;" vertex="1" parent="1">
            <mxGeometry x="120" y="366" width="101" height="38" as="geometry" />
          </mxCell>
        </UserObject>
        <mxCell id="ukDgvpKOKT4WT6pL_J3a-35" value="" style="endArrow=classic;html=1;rounded=0;fontSize=12;startSize=8;endSize=8;curved=1;exitX=1;exitY=0.5;exitDx=0;exitDy=0;exitPerimeter=0;entryX=0;entryY=0.5;entryDx=0;entryDy=0;entryPerimeter=0;" edge="1" parent="1" source="ukDgvpKOKT4WT6pL_J3a-34" target="ukDgvpKOKT4WT6pL_J3a-12">
          <mxGeometry width="50" height="50" relative="1" as="geometry">
            <mxPoint x="990" y="490" as="sourcePoint" />
            <mxPoint x="370" y="385" as="targetPoint" />
          </mxGeometry>
        </mxCell>
        <mxCell id="ukDgvpKOKT4WT6pL_J3a-36" value="EXT_vINTERRUPT_setSenseControl_EXT2&lt;span id=&quot;docs-internal-guid-98234657-7fff-04d9-a120-3d8ea489c442&quot; style=&quot;font-weight:normal;&quot;&gt;&lt;/span&gt;" style="swimlane;whiteSpace=wrap;html=1;rounded=1;fontSize=16;fontFamily=Calibri;fillColor=#ffe6cc;strokeColor=#d79b00;" vertex="1" parent="1">
          <mxGeometry x="80" y="270" width="1130" height="550" as="geometry">
            <mxRectangle x="-207" y="152.5" width="134" height="31" as="alternateBounds" />
          </mxGeometry>
        </mxCell>
        <UserObject label="" Function="EN_DIO_Error_T DIO_init(uint8_t pinNumber, EN_DIO_PORT_T portNumber, EN_DIO_DIRECTION_T direction);" tags="Flowchart" id="ukDgvpKOKT4WT6pL_J3a-12">
          <mxCell style="vsdxID=219;fillColor=#fff2cc;shape=stencil(UzV2Ls5ILEhVNTIoLinKz04tz0wpyVA1dlE1MsrMy0gtyiwBslSNXVWNndPyi1LTi/JL81Ig/IJEkEoQKze/DGRCBUSfAUiHkUElhGcK4bpBVOZk5iGpNEVVikeloQHZpsK0YlWLz1QgA+HFtMycHEgIIcujBwlQCBKcxq4A);strokeColor=#d6b656;spacingTop=-1;spacingBottom=-1;spacingLeft=-1;spacingRight=-1;points=[[0,0.5,0],[1,0.5,0],[0.5,0,0],[0.5,1,0]];labelBackgroundColor=none;rounded=1;html=1;whiteSpace=wrap;fontFamily=Calibri;fontSize=11.27;" vertex="1" parent="ukDgvpKOKT4WT6pL_J3a-36">
            <mxGeometry x="300.5" y="50" width="280" height="130" as="geometry" />
          </mxCell>
        </UserObject>
        <mxCell id="ukDgvpKOKT4WT6pL_J3a-13" value="&lt;div style=&quot;font-size: 11.27px;&quot;&gt;&lt;font style=&quot;font-size: 11.27px;&quot;&gt;Sense_Control ==&amp;nbsp;FALLING_EDGE_SENSE_CONTROL&lt;/font&gt;&lt;br style=&quot;font-size: 11.27px;&quot;&gt;&lt;/div&gt;" style="text;vsdxID=219;fillColor=none;gradientColor=none;strokeColor=none;spacingTop=-1;spacingBottom=-1;spacingLeft=-1;spacingRight=-1;points=[[0,0.5,0],[1,0.5,0],[0.5,0,0],[0.5,1,0]];labelBackgroundColor=none;rounded=1;html=1;whiteSpace=wrap;verticalAlign=middle;align=center;overflow=width;;html=1;fontColor=#000000;fontFamily=Calibri;fontSize=11.27;" vertex="1" parent="ukDgvpKOKT4WT6pL_J3a-12">
          <mxGeometry x="60.02" y="16.1" width="169.98" height="93.9" as="geometry" />
        </mxCell>
        <mxCell id="ukDgvpKOKT4WT6pL_J3a-14" value="&lt;div style=&quot;font-size: 11.27px;&quot;&gt;&lt;div style=&quot;border-color: var(--border-color);&quot;&gt;&lt;div style=&quot;border-color: var(--border-color);&quot;&gt;&lt;font style=&quot;border-color: var(--border-color);&quot;&gt;MCU_vEnableInterrupt();&lt;/font&gt;&lt;/div&gt;&lt;div style=&quot;border-color: var(--border-color);&quot;&gt;&lt;font style=&quot;border-color: var(--border-color);&quot;&gt;CLEAR_BIT(MCUCSR_REG,MCUCSR_REG_ISC2_BITS);&lt;/font&gt;&lt;/div&gt;&lt;div style=&quot;border-color: var(--border-color);&quot;&gt;&lt;font style=&quot;border-color: var(--border-color);&quot;&gt;&lt;span style=&quot;border-color: var(--border-color);&quot;&gt;&lt;/span&gt;SET_BIT(GICR_REG,GICR_REG_INT2_BITS);&lt;/font&gt;&lt;/div&gt;&lt;/div&gt;&lt;/div&gt;" style="rounded=0;whiteSpace=wrap;html=1;fontSize=11.27;fillColor=#d5e8d4;strokeColor=#82b366;fontFamily=Calibri;" vertex="1" parent="ukDgvpKOKT4WT6pL_J3a-36">
          <mxGeometry x="345.5" y="270" width="240" height="80" as="geometry" />
        </mxCell>
        <mxCell id="ukDgvpKOKT4WT6pL_J3a-15" value="" style="endArrow=classic;html=1;rounded=0;fontSize=11.27;startSize=8;endSize=8;curved=1;exitX=0.5;exitY=1;exitDx=0;exitDy=0;exitPerimeter=0;entryX=0.396;entryY=0;entryDx=0;entryDy=0;fontFamily=Calibri;entryPerimeter=0;" edge="1" parent="ukDgvpKOKT4WT6pL_J3a-36" source="ukDgvpKOKT4WT6pL_J3a-12" target="ukDgvpKOKT4WT6pL_J3a-14">
          <mxGeometry width="50" height="50" relative="1" as="geometry">
            <mxPoint x="345.5" y="40" as="sourcePoint" />
            <mxPoint x="395.5" y="-10" as="targetPoint" />
          </mxGeometry>
        </mxCell>
        <mxCell id="ukDgvpKOKT4WT6pL_J3a-16" value="YES" style="text;html=1;strokeColor=none;fillColor=none;align=center;verticalAlign=middle;whiteSpace=wrap;rounded=0;fontSize=11;fontFamily=Calibri;" vertex="1" parent="ukDgvpKOKT4WT6pL_J3a-36">
          <mxGeometry x="380.5" y="220" width="60" height="30" as="geometry" />
        </mxCell>
        <UserObject label="" Function="EN_DIO_Error_T DIO_init(uint8_t pinNumber, EN_DIO_PORT_T portNumber, EN_DIO_DIRECTION_T direction);" tags="Flowchart" id="ukDgvpKOKT4WT6pL_J3a-19">
          <mxCell style="vsdxID=219;fillColor=#fff2cc;shape=stencil(UzV2Ls5ILEhVNTIoLinKz04tz0wpyVA1dlE1MsrMy0gtyiwBslSNXVWNndPyi1LTi/JL81Ig/IJEkEoQKze/DGRCBUSfAUiHkUElhGcK4bpBVOZk5iGpNEVVikeloQHZpsK0YlWLz1QgA+HFtMycHEgIIcujBwlQCBKcxq4A);strokeColor=#d6b656;spacingTop=-1;spacingBottom=-1;spacingLeft=-1;spacingRight=-1;points=[[0,0.5,0],[1,0.5,0],[0.5,0,0],[0.5,1,0]];labelBackgroundColor=none;rounded=1;html=1;whiteSpace=wrap;fontFamily=Calibri;fontSize=11.27;" vertex="1" parent="ukDgvpKOKT4WT6pL_J3a-36">
            <mxGeometry x="665.5" y="50" width="280" height="130" as="geometry" />
          </mxCell>
        </UserObject>
        <mxCell id="ukDgvpKOKT4WT6pL_J3a-20" value="&lt;div style=&quot;font-size: 11.27px;&quot;&gt;&lt;font style=&quot;font-size: 11.27px;&quot;&gt;Sense_Control ==&amp;nbsp;RISING_EDGE_SENSE_CONTROL&lt;/font&gt;&lt;br style=&quot;font-size: 11.27px;&quot;&gt;&lt;/div&gt;" style="text;vsdxID=219;fillColor=none;gradientColor=none;strokeColor=none;spacingTop=-1;spacingBottom=-1;spacingLeft=-1;spacingRight=-1;points=[[0,0.5,0],[1,0.5,0],[0.5,0,0],[0.5,1,0]];labelBackgroundColor=none;rounded=1;html=1;whiteSpace=wrap;verticalAlign=middle;align=center;overflow=width;;html=1;fontColor=#000000;fontFamily=Calibri;fontSize=11.27;" vertex="1" parent="ukDgvpKOKT4WT6pL_J3a-19">
          <mxGeometry x="60.01655172413793" y="16.103749999999998" width="159.96689655172415" height="89.65937499999998" as="geometry" />
        </mxCell>
        <mxCell id="ukDgvpKOKT4WT6pL_J3a-21" value="&lt;div style=&quot;font-size: 11.27px;&quot;&gt;&lt;div style=&quot;border-color: var(--border-color);&quot;&gt;&lt;div style=&quot;border-color: var(--border-color);&quot;&gt;&lt;font style=&quot;border-color: var(--border-color);&quot;&gt;MCU_vEnableInterrupt();&lt;/font&gt;&lt;/div&gt;&lt;div style=&quot;border-color: var(--border-color);&quot;&gt;&lt;font style=&quot;border-color: var(--border-color);&quot;&gt;SET_BIT(MCUCSR_REG,MCUCSR_REG_ISC2_BITS);&lt;/font&gt;&lt;/div&gt;&lt;div style=&quot;border-color: var(--border-color);&quot;&gt;&lt;font style=&quot;border-color: var(--border-color);&quot;&gt;&lt;span style=&quot;border-color: var(--border-color);&quot;&gt;&lt;/span&gt;SET_BIT(GICR_REG,GICR_REG_INT2_BITS);&lt;/font&gt;&lt;/div&gt;&lt;/div&gt;&lt;/div&gt;" style="rounded=0;whiteSpace=wrap;html=1;fontSize=11.27;fillColor=#d5e8d4;strokeColor=#82b366;fontFamily=Calibri;" vertex="1" parent="ukDgvpKOKT4WT6pL_J3a-36">
          <mxGeometry x="700.5" y="270" width="240" height="80" as="geometry" />
        </mxCell>
        <mxCell id="ukDgvpKOKT4WT6pL_J3a-22" value="" style="endArrow=classic;html=1;rounded=0;fontSize=11.27;startSize=8;endSize=8;curved=1;exitX=0.5;exitY=1;exitDx=0;exitDy=0;exitPerimeter=0;entryX=0.442;entryY=-0.008;entryDx=0;entryDy=0;fontFamily=Calibri;entryPerimeter=0;" edge="1" parent="ukDgvpKOKT4WT6pL_J3a-36" source="ukDgvpKOKT4WT6pL_J3a-19" target="ukDgvpKOKT4WT6pL_J3a-21">
          <mxGeometry width="50" height="50" relative="1" as="geometry">
            <mxPoint x="710.5" y="40" as="sourcePoint" />
            <mxPoint x="760.5" y="-10" as="targetPoint" />
          </mxGeometry>
        </mxCell>
        <mxCell id="ukDgvpKOKT4WT6pL_J3a-23" value="YES" style="text;html=1;strokeColor=none;fillColor=none;align=center;verticalAlign=middle;whiteSpace=wrap;rounded=0;fontSize=11;fontFamily=Calibri;" vertex="1" parent="ukDgvpKOKT4WT6pL_J3a-36">
          <mxGeometry x="740.5" y="220" width="60" height="30" as="geometry" />
        </mxCell>
        <mxCell id="ukDgvpKOKT4WT6pL_J3a-24" value="" style="endArrow=classic;html=1;rounded=0;fontSize=11.27;startSize=8;endSize=8;curved=1;exitX=1;exitY=0.5;exitDx=0;exitDy=0;exitPerimeter=0;fontFamily=Calibri;" edge="1" parent="ukDgvpKOKT4WT6pL_J3a-36" target="ukDgvpKOKT4WT6pL_J3a-19">
          <mxGeometry width="50" height="50" relative="1" as="geometry">
            <mxPoint x="580.5" y="115" as="sourcePoint" />
            <mxPoint x="685.5" y="40" as="targetPoint" />
          </mxGeometry>
        </mxCell>
        <mxCell id="ukDgvpKOKT4WT6pL_J3a-25" value="NO" style="text;html=1;strokeColor=none;fillColor=none;align=center;verticalAlign=middle;whiteSpace=wrap;rounded=0;fontSize=11;fontFamily=Calibri;" vertex="1" parent="ukDgvpKOKT4WT6pL_J3a-36">
          <mxGeometry x="585.5" y="70" width="60" height="30" as="geometry" />
        </mxCell>
        <mxCell id="ukDgvpKOKT4WT6pL_J3a-26" value="NO" style="text;html=1;strokeColor=none;fillColor=none;align=center;verticalAlign=middle;whiteSpace=wrap;rounded=0;fontSize=11;fontFamily=Calibri;" vertex="1" parent="ukDgvpKOKT4WT6pL_J3a-36">
          <mxGeometry x="949" y="80" width="60" height="30" as="geometry" />
        </mxCell>
        <UserObject label="&lt;div style=&quot;font-size: 1px&quot;&gt;&lt;font style=&quot;font-size: 11.29px; direction: ltr; letter-spacing: 0px; line-height: 120%; opacity: 1;&quot;&gt;Stop&lt;/font&gt;&lt;/div&gt;" Function="EN_DIO_Error_T DIO_init(uint8_t pinNumber, EN_DIO_PORT_T portNumber, EN_DIO_DIRECTION_T direction);" tags="Flowchart" id="ukDgvpKOKT4WT6pL_J3a-27">
          <mxCell style="verticalAlign=middle;align=center;overflow=width;vsdxID=30;fillColor=#dae8fc;shape=stencil(tVLREoIgEPwaHnEQxsl3s/9gEpSJwDko7e+DsEkze2l627vdu5uFRaxyHe8FosR5sCcxqMZ3iO0Rpcp0ApQPCLEasUpaEC3Yi2lS3fOojOhsr3HDmObyMtsVcYqS29Qh5FEfklwrM5OXeUa/yjkcAwfr7TDpiyTfXvjkMR+Vw2A998qaBac5tAKHU1hq3i4oNwjRr9ofvayt/+Rk+yX/4iWA159KpXWKxJx/z0Bopfyw+g4=);strokeColor=#6c8ebf;spacingTop=-1;spacingBottom=-1;spacingLeft=-1;spacingRight=-1;points=[[0.5,1,0],[0.5,0,0],[0,0.5,0],[1,0.5,0]];labelBackgroundColor=none;rounded=1;html=1;whiteSpace=wrap;fontFamily=Calibri;" vertex="1" parent="ukDgvpKOKT4WT6pL_J3a-36">
            <mxGeometry x="200" y="450" width="101" height="38" as="geometry" />
          </mxCell>
        </UserObject>
        <mxCell id="ukDgvpKOKT4WT6pL_J3a-29" value="" style="endArrow=classic;html=1;rounded=0;fontSize=12;startSize=8;endSize=8;exitX=1;exitY=0.5;exitDx=0;exitDy=0;exitPerimeter=0;entryX=1;entryY=0.5;entryDx=0;entryDy=0;entryPerimeter=0;edgeStyle=orthogonalEdgeStyle;" edge="1" parent="ukDgvpKOKT4WT6pL_J3a-36" source="ukDgvpKOKT4WT6pL_J3a-19" target="ukDgvpKOKT4WT6pL_J3a-27">
          <mxGeometry width="50" height="50" relative="1" as="geometry">
            <mxPoint x="420.5" y="200" as="sourcePoint" />
            <mxPoint x="470.5" y="150" as="targetPoint" />
            <Array as="points">
              <mxPoint x="1020.5" y="115" />
              <mxPoint x="1020.5" y="469" />
            </Array>
          </mxGeometry>
        </mxCell>
        <mxCell id="ukDgvpKOKT4WT6pL_J3a-30" value="" style="endArrow=classic;html=1;rounded=0;fontSize=12;startSize=8;endSize=8;exitX=0.5;exitY=1;exitDx=0;exitDy=0;entryX=1;entryY=0.5;entryDx=0;entryDy=0;entryPerimeter=0;edgeStyle=orthogonalEdgeStyle;" edge="1" parent="ukDgvpKOKT4WT6pL_J3a-36" source="ukDgvpKOKT4WT6pL_J3a-21" target="ukDgvpKOKT4WT6pL_J3a-27">
          <mxGeometry width="50" height="50" relative="1" as="geometry">
            <mxPoint x="420.5" y="200" as="sourcePoint" />
            <mxPoint x="470.5" y="150" as="targetPoint" />
          </mxGeometry>
        </mxCell>
        <mxCell id="ukDgvpKOKT4WT6pL_J3a-31" value="" style="endArrow=classic;html=1;rounded=0;fontSize=12;startSize=8;endSize=8;exitX=0.5;exitY=1;exitDx=0;exitDy=0;entryX=1;entryY=0.5;entryDx=0;entryDy=0;entryPerimeter=0;edgeStyle=orthogonalEdgeStyle;" edge="1" parent="ukDgvpKOKT4WT6pL_J3a-36" source="ukDgvpKOKT4WT6pL_J3a-14" target="ukDgvpKOKT4WT6pL_J3a-27">
          <mxGeometry width="50" height="50" relative="1" as="geometry">
            <mxPoint x="230.5" y="200" as="sourcePoint" />
            <mxPoint x="280.5" y="150" as="targetPoint" />
          </mxGeometry>
        </mxCell>
      </root>
    </mxGraphModel>
  </diagram>
</mxfile>
